<svg xmlns="http://www.w3.org/2000/svg" viewBox="0 0 860 460" width="860" height="460" font-family="ui-sans-serif,system-ui,-apple-system,Segoe UI,Roboto,sans-serif">
<rect width="860" height="460" fill="#ffffff"/>
<text x="78" y="24" font-size="16" font-weight="600" fill="#0f172a">Tier-A: concurrency vs voice-to-voice latency (audio mode)</text>
<text x="78" y="40" font-size="11" fill="#64748b">synthetic providers at fixed latency, so growth is orchestrator overhead · 4 turns/call · 10 cores · seed 1337</text>
<line x1="78" y1="398.0" x2="710" y2="398.0" stroke="#e2e8f0" stroke-width="1"/>
<text x="68" y="402.0" font-size="11" fill="#64748b" text-anchor="end">0</text>
<line x1="78" y1="327.6" x2="710" y2="327.6" stroke="#e2e8f0" stroke-width="1"/>
<text x="68" y="331.6" font-size="11" fill="#64748b" text-anchor="end">800</text>
<line x1="78" y1="257.2" x2="710" y2="257.2" stroke="#e2e8f0" stroke-width="1"/>
<text x="68" y="261.2" font-size="11" fill="#64748b" text-anchor="end">1,600</text>
<line x1="78" y1="186.8" x2="710" y2="186.8" stroke="#e2e8f0" stroke-width="1"/>
<text x="68" y="190.8" font-size="11" fill="#64748b" text-anchor="end">2,400</text>
<line x1="78" y1="116.4" x2="710" y2="116.4" stroke="#e2e8f0" stroke-width="1"/>
<text x="68" y="120.4" font-size="11" fill="#64748b" text-anchor="end">3,200</text>
<line x1="78" y1="46.0" x2="710" y2="46.0" stroke="#e2e8f0" stroke-width="1"/>
<text x="68" y="50.0" font-size="11" fill="#64748b" text-anchor="end">4,000</text>
<text x="78.0" y="418.0" font-size="11" fill="#64748b" text-anchor="middle">5</text>
<text x="254.3" y="418.0" font-size="11" fill="#64748b" text-anchor="middle">25</text>
<text x="406.2" y="418.0" font-size="11" fill="#64748b" text-anchor="middle">100</text>
<text x="558.1" y="418.0" font-size="11" fill="#64748b" text-anchor="middle">400</text>
<text x="634.1" y="418.0" font-size="11" fill="#64748b" text-anchor="middle">800</text>
<text x="710.0" y="418.0" font-size="11" fill="#64748b" text-anchor="middle">1600</text>
<line x1="710.0" y1="46" x2="710.0" y2="398" stroke="#dc2626" stroke-width="1.5" stroke-dasharray="5,4"/>
<text x="716.0" y="60" font-size="11" fill="#dc2626" font-weight="600">lag inflection ≈ 1600</text>
<polyline points="78.0,165.3 254.3,160.2 406.2,155.9 558.1,142.2 634.1,145.9 710.0,132.2" fill="none" stroke="#2563eb" stroke-width="2.5" stroke-linejoin="round"/>
<circle cx="78.0" cy="165.3" r="3.5" fill="#2563eb"/>
<circle cx="254.3" cy="160.2" r="3.5" fill="#2563eb"/>
<circle cx="406.2" cy="155.9" r="3.5" fill="#2563eb"/>
<circle cx="558.1" cy="142.2" r="3.5" fill="#2563eb"/>
<circle cx="634.1" cy="145.9" r="3.5" fill="#2563eb"/>
<circle cx="710.0" cy="132.2" r="3.5" fill="#2563eb"/>
<line x1="726" y1="54" x2="750" y2="54" stroke="#2563eb" stroke-width="2.5"/>
<text x="756" y="58" font-size="11" fill="#334155">e2e p95 (ms)</text>
<polyline points="78.0,277.4 254.3,277.5 406.2,279.8 558.1,275.9 634.1,274.5 710.0,267.9" fill="none" stroke="#dc2626" stroke-width="2.5" stroke-linejoin="round"/>
<circle cx="78.0" cy="277.4" r="3.5" fill="#dc2626"/>
<circle cx="254.3" cy="277.5" r="3.5" fill="#dc2626"/>
<circle cx="406.2" cy="279.8" r="3.5" fill="#dc2626"/>
<circle cx="558.1" cy="275.9" r="3.5" fill="#dc2626"/>
<circle cx="634.1" cy="274.5" r="3.5" fill="#dc2626"/>
<circle cx="710.0" cy="267.9" r="3.5" fill="#dc2626"/>
<line x1="726" y1="74" x2="750" y2="74" stroke="#dc2626" stroke-width="2.5"/>
<text x="756" y="78" font-size="11" fill="#334155">e2e p50 (ms)</text>
<polyline points="78.0,397.9 254.3,397.9 406.2,397.9 558.1,397.9 634.1,397.7 710.0,396.7" fill="none" stroke="#059669" stroke-width="2.5" stroke-linejoin="round"/>
<circle cx="78.0" cy="397.9" r="3.5" fill="#059669"/>
<circle cx="254.3" cy="397.9" r="3.5" fill="#059669"/>
<circle cx="406.2" cy="397.9" r="3.5" fill="#059669"/>
<circle cx="558.1" cy="397.9" r="3.5" fill="#059669"/>
<circle cx="634.1" cy="397.7" r="3.5" fill="#059669"/>
<circle cx="710.0" cy="396.7" r="3.5" fill="#059669"/>
<line x1="726" y1="94" x2="750" y2="94" stroke="#059669" stroke-width="2.5"/>
<text x="756" y="98" font-size="11" fill="#334155">event-loop lag p95 (ms)</text>
<text x="394" y="442" font-size="12" fill="#334155" text-anchor="middle">concurrent sessions (log scale)</text>
<text transform="translate(20,222) rotate(-90)" font-size="12" fill="#334155" text-anchor="middle">milliseconds</text>
</svg>